<svg xmlns="http://www.w3.org/2000/svg" version="1.1" xmlns:xlink="http://www.w3.org/1999/xlink" xmlns:svgjs="http://svgjs.dev/svgjs" width="1000" height="1000" viewBox="0 0 1000 1000"><rect width="1000" height="1000" fill="#ffffff"></rect><g transform="matrix(0.7,0,0,0.7,150,150)"><svg viewBox="0 0 280 280" data-background-color="#db8a74" preserveAspectRatio="xMidYMid meet" height="1000" width="1000" xmlns="http://www.w3.org/2000/svg" xmlns:xlink="http://www.w3.org/1999/xlink"><g id="tight-bounds" transform="matrix(1,0,0,1,0,0)"><svg viewBox="0 0 280 280" height="280" width="280"><g><svg viewBox="0 0 280 280" height="280" width="280"><g><svg viewBox="0 0 280 280" height="280" width="280"><g id="textblocktransform"><svg viewBox="0 0 280 280" height="280" width="280" id="textblock"><g><svg viewBox="0 0 280 280" height="280" width="280"><g transform="matrix(1,0,0,1,92.67961683938944,74.00336708925556)"><svg viewBox="0 0 94.64076632122112 131.99326582148888" height="131.99326582148888" width="94.64076632122112"><g><svg xmlns="http://www.w3.org/2000/svg" xmlns:xlink="http://www.w3.org/1999/xlink" version="1.1" x="0" y="0" viewBox="11.996618568360741 0.718 70.46938143163926 98.282" enable-background="new 0 0 100 100" xml:space="preserve" height="131.99326582148888" width="94.64076632122112" class="icon-kg-0" data-fill-palette-color="accent" id="kg-0"><path d="M78.145 94.255L64.9 30.442c4.664-5.837 12.566-10.411 12.566-10.411l3.015-10.451L57.823 8.736l-1.462-8.018L34.34 53.39 22.478 90.057c-2.164-1.028-6.174-3.531-10.188-9.166 0 0-1.592 9.185 2.641 14.404C16.625 97.386 19.961 99 19.961 99h11.696H50.27h24.481c0-5.626-14.593-6.731-14.593-6.731 0-0.888-0.061-2.269-0.167-2.269h-0.163c0 0 0.033-1.654-0.617-3.688-0.02-0.062-0.037-0.264-0.059-0.324-0.034-0.104-0.074-0.284-0.114-0.393-0.388-1.052-0.86-2.067-1.403-2.976-2.237-3.713-6.753-8.108-15.88-10.865l1.422-2.558c0 0 10.452 2.241 16.018 9.799l3.149-10.657L70.141 92c0.01 0 0.021 0 0.031 0 0.101 0 7.585 2.08 7.585 7h4.709C82.466 99 81.57 95.521 78.145 94.255z" fill="#000000" data-fill-palette-color="accent"></path></svg></g></svg></g><g><path d="M1.463 98.541l2.005-6.307 5.024 1.597 1.056-3.324 4.374 1.39-1.057 3.324 9.252 2.941c0.758 0.241 1.333 0.274 1.724 0.098 0.385-0.177 0.706-0.671 0.963-1.481v0c0.198-0.622 0.326-1.159 0.384-1.611v0l4.509 1.433c-0.004 1.247-0.203 2.489-0.596 3.727v0c-0.688 2.164-1.705 3.603-3.052 4.316-1.353 0.711-3.07 0.736-5.149 0.075v0l-10.039-3.191-0.819 2.576-4.373-1.39 0.818-2.576z" fill="#000000" data-fill-palette-color="primary"></path><path d="M20.209 52.436l9.012 6.611c-0.594-2.19-0.242-4.17 1.057-5.94v0c1.383-1.886 2.986-2.898 4.808-3.038 1.816-0.143 3.826 0.577 6.03 2.159v0l10.796 7.92-3.92 5.345-10.674-7.829c-0.904-0.663-1.705-0.968-2.402-0.915-0.697 0.054-1.371 0.524-2.022 1.412v0c-0.804 1.096-1.025 2.127-0.663 3.093v0l12.268 8.999-3.908 5.329-24.29-17.817z" fill="#000000" data-fill-palette-color="primary"></path><path d="M79.242 38.626v0c-2.747 1.737-5.491 2.326-8.233 1.767-2.74-0.568-4.94-2.165-6.601-4.79v0l-0.295-0.465c-1.159-1.833-1.842-3.669-2.048-5.51-0.209-1.831 0.096-3.544 0.913-5.138 0.821-1.589 2.125-2.949 3.912-4.079v0c2.522-1.595 5.008-2.073 7.456-1.433 2.442 0.644 4.548 2.364 6.317 5.163v0l1.368 2.163-11.101 7.02c0.837 0.878 1.773 1.392 2.809 1.542 1.036 0.149 2.091-0.116 3.165-0.795v0c1.764-1.116 2.752-2.605 2.965-4.469v0l4.468 1.397c-0.094 1.403-0.599 2.792-1.515 4.168-0.916 1.376-2.109 2.528-3.58 3.459zM69.581 24.742v0c-1.632 1.032-1.918 2.729-0.858 5.092v0l5.636-3.565-0.272-0.431c-0.544-0.911-1.21-1.463-2-1.655-0.786-0.187-1.621 0-2.506 0.559z" fill="#000000" data-fill-palette-color="primary"></path><path d="M116.921 1.346l1.258 6.009-2.153 0.329c-2.027 0.467-3.179 1.405-3.454 2.815v0l3.013 13.088-6.439 1.482-4.762-20.68 6.032-1.389 0.822 2.615c0.62-2.277 1.897-3.639 3.831-4.084v0c0.689-0.159 1.306-0.221 1.852-0.185z" fill="#000000" data-fill-palette-color="primary"></path><path d="M163.24 23.084l-6.57-0.71c-0.191-0.451-0.332-1.106-0.423-1.964v0c-1.374 1.39-3.146 1.968-5.316 1.733v0c-1.987-0.215-3.612-0.996-4.875-2.342-1.256-1.353-1.785-2.942-1.588-4.767v0c0.247-2.285 1.279-3.92 3.095-4.907 1.816-0.987 4.333-1.306 7.55-0.958v0l2.028 0.219 0.12-1.115c0.209-1.933-0.525-2.99-2.201-3.172v0c-1.555-0.168-2.415 0.515-2.58 2.05v0l-6.57-0.71c0.221-2.041 1.265-3.607 3.134-4.698 1.874-1.083 4.157-1.479 6.846-1.188 2.69 0.291 4.745 1.176 6.165 2.656 1.42 1.48 2.022 3.368 1.808 5.663v0l-1.009 9.337c-0.182 1.936-0.041 3.449 0.422 4.539v0zM153.018 17.64v0c0.818 0.088 1.516-0.014 2.095-0.307 0.579-0.293 1.007-0.647 1.284-1.061v0l0.365-3.376-1.907-0.206c-2.285-0.247-3.538 0.657-3.76 2.712v0c-0.064 0.595 0.083 1.1 0.442 1.514 0.365 0.416 0.859 0.657 1.481 0.724z" fill="#000000" data-fill-palette-color="primary"></path><path d="M208.411 29.628l-0.143 0.282c-1.49 2.941-3.34 4.954-5.549 6.036-2.21 1.083-4.44 1.055-6.69-0.084v0c-1.741-0.882-2.848-2.239-3.322-4.072v0l-4.474 8.834-5.895-2.986 13.275-26.21 5.504 2.788-0.708 1.848c1.838-0.83 3.678-0.778 5.522 0.156v0c2.335 1.183 3.714 2.959 4.136 5.33 0.419 2.377-0.133 5.069-1.656 8.078zM202.24 27.188l0.318-0.628c1.702-3.36 1.573-5.536-0.386-6.528v0c-1.395-0.707-2.579-0.678-3.553 0.086v0l-3.774 7.451c-0.022 1.307 0.655 2.31 2.032 3.007v0c1.88 0.952 3.668-0.177 5.363-3.388z" fill="#000000" data-fill-palette-color="primary"></path><path d="M230.727 63.888l1.575-1.68c-2.266 0.157-4.195-0.649-5.788-2.417v0c-1.556-1.727-2.233-3.488-2.029-5.283 0.204-1.795 1.248-3.541 3.132-5.238v0l10.212-9.202 4.424 4.909-10.243 9.23c-1.348 1.215-1.431 2.479-0.247 3.792v0c1.015 1.126 2.138 1.565 3.368 1.316v0l11.061-9.967 4.45 4.939-15.764 14.207z" fill="#000000" data-fill-palette-color="primary"></path><path d="M264.162 104.468l-0.295 0.112c-3.085 1.164-5.808 1.4-8.17 0.707-2.362-0.693-3.988-2.219-4.878-4.579v0c-0.689-1.825-0.59-3.574 0.298-5.246v0l-9.264 3.496-2.334-6.182 27.487-10.374 2.179 5.772-1.77 0.885c1.916 0.628 3.239 1.91 3.969 3.844v0c0.924 2.449 0.742 4.69-0.547 6.724-1.295 2.037-3.52 3.65-6.675 4.841zM261.257 98.502l0.658-0.249c3.524-1.33 4.898-3.022 4.122-5.076v0c-0.552-1.463-1.445-2.241-2.679-2.335v0l-7.814 2.949c-0.899 0.95-1.076 2.146-0.531 3.59v0c0.744 1.972 2.825 2.345 6.244 1.121z" fill="#000000" data-fill-palette-color="primary"></path><path d="M32.615 170.804l2.132 6.642-5.302 1.702 1.125 3.505-4.612 1.48-1.125-3.505-9.748 3.129c-0.803 0.258-1.313 0.582-1.53 0.973-0.226 0.387-0.202 1.007 0.072 1.861v0c0.212 0.66 0.428 1.201 0.65 1.623v0l-4.748 1.524c-0.766-1.075-1.358-2.263-1.776-3.564v0c-0.733-2.285-0.734-4.145-0.002-5.579 0.723-1.439 2.182-2.51 4.377-3.215v0l10.573-3.394-0.872-2.718 4.612-1.481 0.873 2.719z" fill="#000000" data-fill-palette-color="primary"></path><path d="M52.538 202.901l-9.506 6.973c2.394 0.091 4.276 1.071 5.648 2.939v0c1.46 1.99 1.972 3.924 1.537 5.803-0.435 1.879-1.795 3.673-4.081 5.384v0l-11.396 8.36-4.138-5.64 11.256-8.258c0.959-0.704 1.521-1.415 1.685-2.134 0.164-0.719-0.098-1.547-0.785-2.484v0c-0.848-1.157-1.815-1.704-2.899-1.642v0l-12.943 9.494-4.119-5.616 25.621-18.795z" fill="#000000" data-fill-palette-color="primary"></path><path d="M67.284 259.637v0c-2.902-1.835-4.703-4.189-5.404-7.062-0.699-2.863-0.171-5.682 1.585-8.458v0l0.311-0.491c1.221-1.931 2.659-3.41 4.315-4.438 1.65-1.032 3.421-1.517 5.312-1.454 1.886 0.058 3.774 0.685 5.664 1.88v0c2.655 1.679 4.23 3.83 4.727 6.453 0.497 2.623-0.189 5.411-2.056 8.364v0l-1.445 2.284-11.713-7.407c-0.465 1.194-0.535 2.32-0.207 3.38 0.331 1.054 1.059 1.937 2.186 2.649v0c1.867 1.181 3.739 1.452 5.615 0.813v0l0.678 4.881c-1.379 0.552-2.929 0.701-4.652 0.448-1.726-0.247-3.365-0.861-4.916-1.842zM76.154 244.143v0c-1.729-1.094-3.476-0.602-5.241 1.476v0l5.939 3.756 0.283-0.449c0.628-0.93 0.853-1.813 0.675-2.65-0.173-0.833-0.725-1.544-1.656-2.133z" fill="#000000" data-fill-palette-color="primary"></path><path d="M122.091 256.273l-1.586 6.28-2.205-0.691c-2.132-0.496-3.656-0.141-4.571 1.063v0l-3.21 13.806-6.794-1.579 5.069-21.803 6.367 1.48-0.433 2.852c1.643-1.873 3.484-2.572 5.523-2.097v0c0.728 0.169 1.342 0.399 1.84 0.689z" fill="#000000" data-fill-palette-color="primary"></path><path d="M165.558 277.726l-6.938 0.72c-0.29-0.428-0.579-1.071-0.866-1.93v0c-1.104 1.741-2.803 2.731-5.095 2.968v0c-2.103 0.218-3.954-0.233-5.554-1.352-1.599-1.119-2.498-2.639-2.697-4.559v0c-0.25-2.414 0.453-4.329 2.111-5.745 1.657-1.423 4.186-2.31 7.587-2.663v0l2.14-0.222-0.122-1.176c-0.212-2.042-1.203-2.971-2.975-2.788v0c-1.643 0.17-2.381 1.064-2.213 2.68v0l-6.938 0.719c-0.223-2.15 0.512-3.993 2.205-5.529 1.693-1.536 3.96-2.451 6.8-2.745 2.84-0.294 5.154 0.166 6.94 1.382 1.794 1.215 2.836 3.028 3.127 5.438v0l1.022 9.859c0.239 2.039 0.716 3.572 1.431 4.598v0zM153.81 274.372v0c0.866-0.09 1.563-0.35 2.092-0.781 0.529-0.431 0.895-0.892 1.097-1.385v0l-0.369-3.56-2.018 0.209c-2.414 0.25-3.509 1.461-3.284 3.631v0c0.065 0.629 0.331 1.117 0.798 1.466 0.467 0.348 1.028 0.488 1.684 0.42z" fill="#000000" data-fill-palette-color="primary"></path><path d="M208.263 249.229l0.151 0.301c1.554 3.107 2.092 5.939 1.614 8.496-0.468 2.56-1.891 4.434-4.268 5.623v0c-1.842 0.921-3.691 1.002-5.546 0.242v0l4.675 9.349-6.239 3.12-13.86-27.719 5.828-2.914 1.108 1.76c0.456-2.083 1.66-3.612 3.612-4.588v0c2.463-1.231 4.833-1.28 7.11-0.146 2.286 1.137 4.225 3.296 5.815 6.476zM202.312 252.923l-0.333-0.666c-1.776-3.551-3.7-4.808-5.774-3.771v0c-1.478 0.739-2.198 1.76-2.162 3.065v0l3.941 7.88c1.098 0.842 2.373 0.9 3.826 0.173v0c1.988-0.994 2.156-3.221 0.502-6.681z" fill="#000000" data-fill-palette-color="primary"></path><path d="M246.589 230.186l-1.93-1.469c0.403 2.363-0.24 4.472-1.93 6.326v0c-1.653 1.814-3.433 2.707-5.34 2.681-1.902-0.032-3.843-0.95-5.824-2.755v0l-10.718-9.767 4.692-5.148 10.748 9.795c1.417 1.291 2.753 1.249 4.008-0.128v0c1.081-1.186 1.426-2.412 1.034-3.679v0l-11.607-10.578 4.726-5.186 16.544 15.077z" fill="#000000" data-fill-palette-color="primary"></path><path d="M263.853 174.625l0.315 0.12c3.243 1.245 5.551 2.972 6.924 5.182 1.382 2.205 1.596 4.549 0.643 7.03v0c-0.738 1.923-2.048 3.23-3.93 3.921v0l9.758 3.746-2.5 6.512-28.932-11.108 2.336-6.084 2.006 0.552c-1.069-1.845-1.212-3.786-0.43-5.823v0c0.987-2.57 2.703-4.205 5.149-4.905 2.455-0.703 5.342-0.418 8.661 0.857zM261.953 181.367l-0.695-0.267c-3.706-1.423-5.975-1.052-6.806 1.112v0c-0.592 1.542-0.435 2.782 0.472 3.72v0l8.225 3.158c1.378-0.119 2.359-0.937 2.942-2.454v0c0.797-2.075-0.582-3.832-4.138-5.269z" fill="#000000" data-fill-palette-color="primary"></path><path d="M0 139.563c0-6.355 5.152-11.507 11.507-11.507 6.355 0 11.507 5.152 11.508 11.507 0 6.355-5.152 11.507-11.508 11.507-6.355 0-11.507-5.152-11.507-11.507z" fill="#000000" data-fill-palette-color="primary"></path><path d="M256.985 139.563c0-6.355 5.152-11.507 11.508-11.507 6.355 0 11.507 5.152 11.507 11.507 0 6.355-5.152 11.507-11.507 11.507-6.355 0-11.507-5.152-11.508-11.507z" fill="#000000" data-fill-palette-color="primary"></path></g></svg></g></svg></g></svg></g></svg></g><defs></defs></svg><rect width="280" height="280" fill="none" stroke="none" visibility="hidden"></rect></g></svg></g></svg>